<?xml version="1.0" encoding="UTF-8"?>
<svg id="katman_1" data-name="katman 1" xmlns="http://www.w3.org/2000/svg" version="1.1" viewBox="0 0 527 120">
  <defs>
    <style>
      .cls-1 {
        fill: #000;
        stroke-width: 0px;
      }
    </style>
  </defs>
  <path class="cls-1" d="M513.31,118.39c5.12-1.64,6.08-3.34,4.94-8.73-.6-2.85,1.05-6.64,2.98-6.82,1.73-.17,3.46,2.59,3.62,5.79.24,4.56-3.43,9.95-7.87,11.16-1.12.31-2.49-.28-3.74-.46.02-.31.04-.62.07-.94Z"/>
  <path class="cls-1" d="M382.68,45.92c-6.54,2.68-12.93,5.23-19.25,7.97-.71.31-1.45,1.66-1.38,2.45,1.31,14.13,4.99,27.45,13.92,38.86,1.14,1.46,1.61,2.93-.17,4.19-1.62,1.15-3.35,1.24-4.49-.62-3.28-5.33-7.02-10.49-9.5-16.19-2.77-6.4-4.36-13.31-6.45-20-.42-1.34-.81-2.68-1.41-4.68-2.9,1.99-5.78,3.49-8.08,5.63-9.36,8.73-18.37,17.84-27.83,26.44-6.4,5.81-13.24,11.16-20.1,16.43-3.13,2.41-6.96,3.99-10.89,1.83-1.34-.74-2.16-2.63-2.87-4.15-.12-.25,1.65-2.04,2.31-1.91,4.53.89,8.19-.92,11.33-3.67,12.66-11.08,24.12-23.29,34.53-36.55,10.08-12.85,14.96-27.58,17.52-43.42.59-3.64,2.06-7.29,3.85-10.53.85-1.55,3.64-3.25,5.11-2.92,1.76.39,3.99,2.69,4.36,4.5.75,3.74.79,7.73.43,11.56-.8,8.68-2,17.33-3.12,26.62,6.12-2.23,11.23-4.14,16.37-5.96,6.89-2.43,6.85-2.41,7.11-9.66.2-5.51.6-11.02.77-16.53.05-1.52-.41-3.05-.74-5.24-1.88,2.57-3.32,4.55-4.97,6.8-3.15-2.15-1.43-5.14-1.55-7.57-.06-1.24.95-2.62,1.71-3.79,1.49-2.29,3.6-3.94,6.43-3.66,3.22.31,4.73,3.01,4.95,5.67.52,6.35.54,12.74.59,19.12.02,3.45-.32,6.9-.52,10.9,3.77,0,7.31-.07,10.84.01,6.25.14,9.88,5.12,7.43,10.87-2.19,5.14-5.19,9.94-7.84,14.91,4.19-.6,8.26.45,11.05,4.51,3.21,4.68,2.63,7.2-2.25,9.88-1.62.88-3.3,1.65-4.92,2.52-2.58,1.4-2.79,3.07-.22,4.54,3.57,2.03,7.43,3.53,11.06,5.45,2.03,1.07,3.84,2.54,5.93,3.95-1.05,1.23-1.64,1.99-2.3,2.7-3.28,3.54-5.35,3.74-9.23.96-3.87-2.78-7.73-5.56-11.63-8.31-6.77-4.78-6.79-6.98-.09-11.61,1.07-.74,2.2-1.43,3.1-2.34,1.5-1.54,1.01-3.35-.97-4.08-2.24-.82-11.82,2.68-12.13,4.9-.76,5.3-1.82,10.81,2.18,15.52.7.83,1.63,1.55,2.05,2.5.52,1.19,1.25,3.04.73,3.74-.74,1-2.55,1.7-3.88,1.68-2.84-.05-4.93-1.79-5.83-4.45-.79-2.34-1.54-4.83-1.55-7.26-.03-7.13.38-14.25.48-21.38.1-6.78.02-13.57.02-21.12ZM389.58,44.33c-.23,7.47-.49,14.65-.62,21.83-.01.66.69,1.78,1.24,1.9.67.15,1.92-.33,2.22-.9,3.07-5.86,6.26-11.69,8.84-17.77,1.27-2.99-.61-4.95-3.92-5.05-2.26-.07-4.53-.01-7.77-.01ZM353.78,45.66c-2.03,3.17-3.64,5.7-5.74,8.99q6.77-3.6,5.74-8.99Z"/>
  <path class="cls-1" d="M37.16,112.83c-3.45.53-5.5-1.23-7.07-3.65-3.79-5.82-4.86-12.5-5.61-19.19-1.36-12.19-2.6-24.41-1.19-36.7.23-2.02-.8-2.33-2.48-2.39-5.3-.19-10.61-.5-15.91-.76-.22-.01-.47.03-.64-.06C2.75,49.26-.02,48.36,0,47.55c.08-2.66,2.68-1.73,4.36-1.87,6.37-.56,12.75-1.12,19.14-1.47,2.32-.13,2.36-1.74,2.92-3.22,3.25-8.6,6.4-17.25,9.91-25.74,1.05-2.54,3.01-4.77,4.84-6.89,4.77-5.52,11.09-6.4,17.84-5.32,7.34,1.16,14.36,3.33,20.62,7.47,1.43.95,2.92,2.06,3.83,3.46.78,1.2,1.44,3.26.91,4.32-.54,1.08-2.75,2.17-3.95,1.92-2.79-.57-5.53-1.73-8.1-3.03-5.23-2.65-10.51-4.64-16.52-3.31-6.77,1.49-11.34,5.98-14.59,11.6-2.41,4.17-3.91,8.91-5.43,13.52-1.08,3.29-.1,4.44,3.42,4.42,5.75-.02,11.51-.6,17.24-.36,7.13.29,14.24,1.1,21.33,1.87,1.47.16,2.84,1.17,4.26,1.78-.03.42-.05.83-.08,1.25-1.66.31-3.33.91-4.99.9-9.77-.08-19.53-.48-29.29-.37-3.73.04-7.57.78-11.1,1.97-1.87.63-4.17,2.71-4.58,4.51-3.91,17.34-4,34.62,2.03,51.6.74,2.1,2,4.01,3.14,6.25Z"/>
  <path class="cls-1" d="M138.03,50.8c-2.25,5.8-3.79,10.77-6.08,15.38-2.47,4.98-7.17,6.87-11.63,5.1-1.49-.59-3.07-1.83-3.84-3.2-3.16-5.63.71-15.76,7.67-18.56-1.29,1.6-2.12,2.5-2.81,3.5-1.89,2.73-3.62,5.64-2.2,9.05.55,1.32,1.95,2.96,3.16,3.15,1.4.22,3.75-.58,4.4-1.69,1.6-2.75,2.45-5.94,3.64-8.94,2.45-6.12,1.03-10.58-4.5-14.7-4.14-3.09-7.56-7.49-10.43-11.89-5-7.67-3.63-15.64.95-23.02,3.62-5.83,9.8-5.87,13.85-.3,4.54,6.23,6.22,13.56,7.12,21.03.65,5.37.65,10.82,1.18,16.2.14,1.46.88,3.06,1.8,4.22,14.07,17.71,21.17,37.69,19.45,60.42-.25,3.32-1.67,6.7-3.2,9.72-.86,1.69-3.05,2.7-4.79,3.74,8.17-12.46,4.67-25.47,2-38.18-2.26-10.75-7.65-20.23-14.45-28.86-.46-.58-.77-1.27-1.3-2.16ZM131.66,38.47c.3-8.82.02-17.46-4.24-25.31-2-3.69-5.62-3.35-7.45.47-1.35,2.82-1.79,5.71-.55,8.81,2.58,6.43,6.24,12,12.24,16.03Z"/>
  <path class="cls-1" d="M212.61,61.62c1.57-1.49,2.58-2.24,3.31-3.2.85-1.11,1.29-2.57,2.23-3.57,1.13-1.19,2.82-3.06,3.87-2.82,1.4.31,2.78,2.17,3.53,3.69,1.49,3,2.48,6.23,3.78,9.33,1.52,3.63,4.04,4.48,7.5,2.59,2.16-1.18,4.27-2.43,6.46-3.69.71-2.69,1.15-5.83,2.35-8.64,3.69-8.69,14.92-9.37,20.98-6.25,1.41.73,2.47,3.17,2.69,4.94.3,2.37-1.39,4.21-3.81,4.5-3.53.43-7.13.28-10.66.7-1.42.17-3.31.84-3.94,1.91-.59.99-.3,3.3.52,4.12.9.9,2.89,1.17,4.32,1,2.33-.27,4.59-1.53,6.89-1.58,1.74-.04,3.51,1.15,5.17,2.39-5.43,3.78-11.02,6.58-17.32,5.36-2.45-.47-4.44-3.31-6.95-5.32-1.91,1.07-4.45,2.67-7.14,3.97-6.47,3.13-11.36,1.31-14.39-5.06-.51-1.08-1.53-1.91-2.32-2.86-.82.81-1.73,1.56-2.45,2.46-.74.93-1.07,2.29-1.96,2.96-1.16.87-2.77,1.82-4.04,1.66-1.07-.14-2.32-1.66-2.83-2.86-1.02-2.37-1.57-4.93-2.34-7.41-.13-.41-.37-.78-.64-1.35-3.13,2.39-4.31,5.21-4.96,8.3-.83,3.94-2.17,5-6.24,4.87-3.2-.1-4.42-1.83-4.87-4.9-.47-3.29-1.36-6.57-2.54-9.68-.41-1.09-2.18-2.25-3.36-2.28-.8-.02-1.8,1.78-2.44,2.92-.88,1.57-.24,4.11-2.97,4.44.1-1.86-.29-3.95.42-5.55,1.54-3.49,3.63-7.17,8.04-7.06,4.62.11,6.12,4.21,7.83,7.74.53,1.1,1.21,2.13,1.82,3.19,1.03-.89,2.22-1.66,3.04-2.71,1.33-1.7,2.23-3.77,3.69-5.33,1-1.06,2.84-2.3,3.96-2.03,1.35.33,2.69,1.99,3.37,3.4,1.01,2.09,1.42,4.47,2.38,7.7ZM254.78,57.58c2.26-.35,4.23-.44,6.04-1.03,1.05-.34,2.64-1.56,2.57-2.25-.11-1.13-1.14-2.67-2.18-3.11-2.74-1.16-5.56-.78-7.67,1.51-.93,1.02-1.34,2.52-1.98,3.81,1.14.38,2.29.76,3.2,1.06Z"/>
  <path class="cls-1" d="M467.06,46.1c4.24-.22,7.41,1.56,8.28,4.28,1.08,3.38-.75,5.61-3.45,6.86-7.07,3.27-14.27,6.25-21.44,9.31-2.99,1.27-6.16,2.18-8.97,3.74-1.46.81-3.01,2.52-3.37,4.09-1.37,6.03-.66,11.99,3.19,16.98,1.22,1.57,3.77,2.29,5.85,2.96,1.42.45,3.55.14,3.19,2.19-.24,1.38-1.63,3.22-2.92,3.65-7.11,2.38-13.22-.26-15.79-7.36-1.86-5.14-2.71-10.68-3.64-16.1-.39-2.25-1.02-3.84-3.12-4.87-1.25-.61-2.43-1.46-3.47-2.39-2.93-2.63-2.6-4.78.93-6.4,1.08-.49,2.22-.88,3.36-1.22,2.79-.83,4.16-2.56,4.61-5.56.77-5.12,1.98-10.18,3.07-15.24.18-.83.48-1.85,1.09-2.32,1.51-1.19,3.22-2.11,4.85-3.14.38,1.59,1.16,3.2,1.08,4.77-.27,5.74-.88,11.47-1.26,17.21-.33,4.96,1.56,6.72,6.37,5.38,5.31-1.48,10.5-3.43,15.7-5.3,2.14-.77,4.18-1.81,6.22-2.81,2.97-1.46,3.19-2.42,1.44-5.3-.59-.96-1.08-1.99-1.83-3.38Z"/>
  <path class="cls-1" d="M455.97,92.49c.06-4.43,1.71-8.3,4.6-11.53,2.16-2.41,4.59-4.6,7.12-6.63,2.13-1.71,4.56-2.94,3.57-6.44-.16-.56,1.13-2.01,2-2.29,3.11-1.01,6.31.56,7.9,4.09,1.63,3.64,3,7.44,4.14,11.27,1.35,4.55,3.59,8.27,7.76,10.75,1.66.99,3.17,2.28,4.64,3.55,1.63,1.41,1.22,2.55-.64,3.41-4.49,2.08-9.26.98-12.62-2.94q-3.36-3.92-7.66-.88c-3.98,2.81-7.77,5.89-13.13,5.62-5.06-.26-7.82-2.97-7.67-7.99ZM477.33,81.67c-.59-1.13-1.72-3.29-2.83-5.46-1.25-2.43-2.85-2.36-4.6-.62-3.72,3.69-5.94,8.26-6.93,13.32-.37,1.9-.2,4.37,2.55,4.84,4.01.68,11.89-6.6,11.81-12.08Z"/>
  <path class="cls-1" d="M507.83,100.89c1.48-.86,2.96-1.73,4.45-2.59,1.01-.59,2.15-1.03,2.99-1.81,1.71-1.58,1.56-2.97-.77-3.88-3.32-1.31-6.72-2.46-9.92-4.04-7.38-3.64-8.78-10.21-3.5-16.5,5.35-6.38,12.29-10.17,20.43-11.74,3.05-.59,4.92.87,5.23,3.82.26,2.53-1.44,4.04-4.56,4.19-6.24.3-10.82,3.29-13.88,8.71-1.39,2.46-.85,4.5,1.46,5.84,2.52,1.45,5.25,2.53,7.86,3.83,3.05,1.52,6.81,2.51,6.81,6.91,0,4.28-3.16,6.26-6.54,7.62-3.06,1.23-6.28,2.95-9.62.9l-.43-1.26Z"/>
  <path class="cls-1" d="M112.25,70.07c-4.88,3.26-9.58,2.98-13.26-.84-2.1-2.18-3.61-2.44-6.26-.85-3.1,1.86-6.57,3.28-10.06,4.25-3.13.87-6.68.37-8.39-2.71-1.72-3.09-.63-6.61,1.72-8.99,2.86-2.89,6.39-5.1,9.5-7.75.79-.67,1.06-1.94,1.68-2.85.58-.84,1.23-2.09,2.03-2.26,2.71-.56,5.28.06,6.78,2.64,1.3,2.23,2.6,4.54,3.38,6.98,1.37,4.28,3.74,7.45,7.94,9.27,1.62.71,3.04,1.89,4.94,3.1ZM83.04,68.17c3.72-.91,7.17-2.81,9.4-6.37,1.07-1.72-.61-6.09-3.12-7.09-1.17-.47-3.6.45-4.53,1.54-1.92,2.25-3.48,4.91-4.68,7.62-1.06,2.38.38,4.36,2.93,4.31Z"/>
  <path class="cls-1" d="M158.1,61.55c.83-4.73,1.88-9.3,6.77-11.52,1.03-.47,2.41-.18,3.63-.23-.11,1.02-.15,2.06-.37,3.06-.16.73-.53,1.42-.85,2.11-2.76,6.07-1.65,8.92,4.47,11.43.6.25,1.29.35,1.82.7.91.62,1.73,1.38,2.59,2.09-.94.95-1.72,2.4-2.85,2.77-4.29,1.4-13.2-3.28-14.74-7.55-.32-.9-.33-1.9-.48-2.86Z"/>
  <path class="cls-1" d="M167.73,37.92c-.65,0-1.37.18-1.93-.04-1.02-.41-2.36-.86-2.79-1.69-.31-.61.35-2.15,1.04-2.77,2.62-2.37,5.84-3.25,9.33-2.84.64.08,1.75,1.14,1.66,1.53-.35,1.59-.67,3.65-1.78,4.51-1.4,1.08-3.58,1.17-5.42,1.68-.03-.13-.07-.25-.1-.38Z"/>
</svg>